# xmcd
#
# Track frame offsets:
#	150
#	18055
#	29682
#
# Disc length: 599 seconds
#
# Revision: 1
# Processed by: cddbd v1.5.2PL0 Copyright (c) Steve Scherf et al.
# Submitted via: audiograbber 1.83.01
#
DISCID=19025503
DTITLE=Bob Dylan - March On Washington
DYEAR=1963
DGENRE=Folk Rock
TTITLE0=Only A Pawn In Their Game
TTITLE1=Keep Your Eyes On The Prize
TTITLE2=When The Ship Comes In
EXTD=Silvertone Records
EXTT0=
EXTT1=
EXTT2=
PLAYORDER=
